<?xml version="1.0" encoding="UTF-8"?>
<!-- Made by Patrick Morris -->
<!-- Generator: Blender, SVG Export for Grease Pencil - v1.0 -->
<!DOCTYPE svg PUBLIC "-//W3C//DTD SVG 1.1//EN" "http://www.w3.org/Graphics/SVG/1.1/DTD/svg11.dtd">
<svg version="1.0" x="0px" y="0px" xmlns="http://www.w3.org/2000/svg" width="477px" height="478px" viewBox="0 0 477 478">
	<g id="blender_frame_1">
		<g id="blender_object_GPencil">
			<!--Layer: GP_Layer-->
			<g id="GP_Layer">
				<polygon fill="white" shape-rendering="crispEdges" stroke="none" fill-opacity="1" points="447.754272,259.119080 426.931458,257.550110 427.529419,232.867615 424.900330,208.273682 445.583313,204.357788 464.867371,192.913330 459.239746,170.960815 451.475708,149.634277 429.239380,151.830505 410.127136,161.045959 398.206299,139.240784 383.503418,119.166077 399.693481,105.216187 410.876160,85.400513 394.850769,69.158325 377.279724,54.568848 358.884949,67.850342 346.783691,85.616638 325.398621,72.752258 302.483765,62.825928 309.610779,42.455078 309.424927,19.537659 287.293213,13.653076 264.678772,10.000000 255.331848,30.905151 253.705750,52.463562 228.710754,52.219604 203.904785,55.293762 199.909241,34.059937 188.318176,14.353149 166.268250,20.549988 144.951904,28.905579 147.296143,51.684265 156.617065,71.107544 134.973572,83.554504 115.179626,98.741028 101.219849,82.470276 81.518982,71.365601 65.712708,87.828979 51.624329,105.753235 64.888245,124.156677 82.471619,136.179199 70.112366,157.754333 60.703247,180.729797 40.753967,173.728210 18.491211,174.041992 13.153442,196.065796 10.000000,218.469543 30.354248,227.668701 51.271606,229.244812 51.377319,253.940857 54.689575,278.365356 34.237305,282.237549 15.452942,293.528259 21.756531,315.077148 30.105347,335.876190 51.968384,333.740356 70.586304,324.763306 82.870911,345.964600 97.769348,365.361694 82.204773,378.772583 71.744690,397.727417 87.759644,413.181152 105.167542,426.999451 122.822144,414.422424 134.334106,397.521240 155.379395,409.768066 177.806458,419.186096 171.074524,438.427734 171.483582,459.937195 192.928650,465.437012 214.794800,468.846436 223.774719,449.286194 225.305725,428.988464 249.596985,429.218872 273.719604,426.314209 277.484863,446.323975 288.576599,464.783142 309.950500,458.990173 330.682007,451.162231 328.710693,429.724487 319.883789,411.330505 341.163391,399.487488 360.762085,384.978699 374.096802,400.520874 393.075562,411.085388 408.892517,395.410400 423.144409,378.257324 410.619934,360.550415 393.625244,348.930298 406.324402,327.972595 416.221375,305.505341 435.776184,312.368469 457.816467,312.061249 463.840759,290.421997 467.742065,268.261780" />
				<polygon stroke="black" shape-rendering="crispEdges" stroke-opacity="1" fill="none" stroke-linecap="round" stroke-width="3" points="447.754272,259.119080 426.931458,257.550110 427.529419,232.867615 424.900330,208.273682 445.583313,204.357788 464.867371,192.913330 459.239746,170.960815 451.475708,149.634277 429.239380,151.830505 410.127136,161.045959 398.206299,139.240784 383.503418,119.166077 399.693481,105.216187 410.876160,85.400513 394.850769,69.158325 377.279724,54.568848 358.884949,67.850342 346.783691,85.616638 325.398621,72.752258 302.483765,62.825928 309.610779,42.455078 309.424927,19.537659 287.293213,13.653076 264.678772,10.000000 255.331848,30.905151 253.705750,52.463562 228.710754,52.219604 203.904785,55.293762 199.909241,34.059937 188.318176,14.353149 166.268250,20.549988 144.951904,28.905579 147.296143,51.684265 156.617065,71.107544 134.973572,83.554504 115.179626,98.741028 101.219849,82.470276 81.518982,71.365601 65.712708,87.828979 51.624329,105.753235 64.888245,124.156677 82.471619,136.179199 70.112366,157.754333 60.703247,180.729797 40.753967,173.728210 18.491211,174.041992 13.153442,196.065796 10.000000,218.469543 30.354248,227.668701 51.271606,229.244812 51.377319,253.940857 54.689575,278.365356 34.237305,282.237549 15.452942,293.528259 21.756531,315.077148 30.105347,335.876190 51.968384,333.740356 70.586304,324.763306 82.870911,345.964600 97.769348,365.361694 82.204773,378.772583 71.744690,397.727417 87.759644,413.181152 105.167542,426.999451 122.822144,414.422424 134.334106,397.521240 155.379395,409.768066 177.806458,419.186096 171.074524,438.427734 171.483582,459.937195 192.928650,465.437012 214.794800,468.846436 223.774719,449.286194 225.305725,428.988464 249.596985,429.218872 273.719604,426.314209 277.484863,446.323975 288.576599,464.783142 309.950500,458.990173 330.682007,451.162231 328.710693,429.724487 319.883789,411.330505 341.163391,399.487488 360.762085,384.978699 374.096802,400.520874 393.075562,411.085388 408.892517,395.410400 423.144409,378.257324 410.619934,360.550415 393.625244,348.930298 406.324402,327.972595 416.221375,305.505341 435.776184,312.368469 457.816467,312.061249 463.840759,290.421997 467.742065,268.261780" />
			</g>
		</g>
	</g>
</svg>
