<!-- icons/github.svg -->
<svg xmlns="http://www.w3.org/2000/svg" width="24" height="24" fill="currentColor" viewBox="0 0 24 24">
    <path d="M12 .297c-6.63 0-12 5.373-12 12 0 5.303 3.438 9.8 8.205 11.385.6.113.82-.258.82-.577 0-.285-.01-1.04-.015-2.04-3.338.726-4.042-1.416-4.042-1.416-.546-1.386-1.333-1.756-1.333-1.756-1.089-.744.084-.729.084-.729 1.205.084 1.838 1.238 1.838 1.238 1.07 1.835 2.809 1.305 3.495.998.108-.775.418-1.305.762-1.605-2.665-.305-5.467-1.332-5.467-5.931 0-1.311.47-2.381 1.235-3.221-.135-.304-.54-1.527.105-3.176 0 0 1.005-.322 3.3 1.23.96-.267 1.98-.399 3-.404 1.02.005 2.04.137 3 .404 2.28-1.552 3.285-1.23 3.285-1.23.645 1.649.24 2.872.12 3.176.765.84 1.23 1.91 1.23 3.221 0 4.61-2.807 5.625-5.475 5.921.435.373.825 1.103.825 2.222 0 1.606-.015 2.898-.015 3.293 0 .32.21.694.825.577 4.765-1.584 8.2-6.082 8.2-11.384 0-6.627-5.373-12-12-12z"/>
</svg>
