<!-- Save as icons/linkedin.svg -->
<svg xmlns="http://www.w3.org/2000/svg" width="24" height="24" fill="currentColor" viewBox="0 0 24 24">
    <path d="M19 0h-14c-2.761 0-5 2.239-5 5v14c0 2.761 2.239 5 5 5h14c2.761 0 5-2.239 5-5v-14c0-2.761-2.239-5-5-5zm-11 19h-3v-10h3v10zm-1.5-11.31c-.966 0-1.5-.705-1.5-1.59 0-.897.548-1.59 1.432-1.59.89 0 1.5.693 1.5 1.59 0 .885-.54 1.59-1.432 1.59zm13.5 11.31h-3v-5.604c0-1.415-.504-2.379-1.764-2.379-.961 0-1.531.647-1.783 1.27-.092.223-.116.535-.116.848v5.865h-3s.04-9.524 0-10.496h3v1.465c.399-.615 1.108-1.495 2.695-1.495 1.969 0 3.443 1.285 3.443 4.043v6.483z"/>
</svg>
